<svg width="60" height="60" viewBox="0 0 60 60" fill="none" xmlns="http://www.w3.org/2000/svg">
<path d="M45 50.625C48.1066 50.625 50.625 48.1066 50.625 45C50.625 41.8934 48.1066 39.375 45 39.375C41.8934 39.375 39.375 41.8934 39.375 45C39.375 48.1066 41.8934 50.625 45 50.625Z" fill="#FF0000"/>
<path d="M15 50.625C18.1066 50.625 20.625 48.1066 20.625 45C20.625 41.8934 18.1066 39.375 15 39.375C11.8934 39.375 9.375 41.8934 9.375 45C9.375 48.1066 11.8934 50.625 15 50.625Z" fill="#FF0000"/>
<path d="M55.875 32.625L48.375 23.25C48 22.6875 47.4375 22.5 46.875 22.5H37.5V16.875C37.5 15.75 36.75 15 35.625 15H5.625C4.5 15 3.75 15.75 3.75 16.875V45C3.75 46.125 4.5 46.875 5.625 46.875H5.8125C5.625 46.3125 5.625 45.5625 5.625 45C5.625 39.75 9.75 35.625 15 35.625C20.25 35.625 24.375 39.75 24.375 45C24.375 45.5625 24.375 46.3125 24.1875 46.875H35.625H35.8125C35.625 46.3125 35.625 45.5625 35.625 45C35.625 39.75 39.75 35.625 45 35.625C50.25 35.625 54.375 39.75 54.375 45C54.375 45.5625 54.375 46.3125 54.1875 46.875H54.375C55.5 46.875 56.25 46.125 56.25 45V33.75C56.25 33.375 56.0625 33 55.875 32.625Z" fill="#FF0000"/>
</svg>
