<svg width="60" height="60" viewBox="0 0 60 60" fill="none" xmlns="http://www.w3.org/2000/svg">
<path d="M39.7608 44.8343V54.0919L44.1963 55.9379V42.4083C42.803 43.3639 41.317 44.1766 39.7608 44.8343ZM15.8038 42.4083V55.8456L20.2392 53.9995V44.8343C18.683 44.1767 17.197 43.3639 15.8038 42.4083ZM30 46.8038C27.9055 46.8049 25.8192 46.5443 23.7894 46.0279V60L30 57.4152L36.2105 59.9999V46.0279C34.1808 46.5442 32.0944 46.8049 30 46.8038ZM30 0C18.075 0 8.37329 9.7017 8.37329 21.6268C8.37329 33.5519 18.075 43.2535 30 43.2535C41.9249 43.2535 51.6268 33.5518 51.6268 21.6267C51.6268 9.70158 41.9251 0 30 0ZM30 38.6835C20.5461 38.6835 12.8548 30.9922 12.8548 21.5383C12.8548 12.0844 20.5461 4.393 30 4.393C39.4538 4.393 47.1452 12.0844 47.1452 21.5383C47.1452 30.9923 39.4539 38.6835 30 38.6835ZM30 7.94319C22.5037 7.94319 16.405 14.0418 16.405 21.5383C16.405 29.0348 22.5037 35.1332 30 35.1332C37.4962 35.1332 43.595 29.0346 43.595 21.5382C43.595 14.0418 37.4963 7.94319 30 7.94319ZM35.5876 29.4726L30 26.5351L24.4125 29.4726L25.4796 23.2509L20.9592 18.8447L27.2063 17.9368L30 12.276L32.7937 17.9368L39.0408 18.8447L34.5205 23.2509L35.5876 29.4726Z" fill="#FF0000"/>
</svg>
