<svg width="60" height="60" viewBox="0 0 60 60" fill="none" xmlns="http://www.w3.org/2000/svg">
<path d="M42.875 25.125C41.0345 25.1613 39.2333 24.5902 37.75 23.5C37.4722 23.3153 37.1603 23.1881 36.8326 23.1258C36.5049 23.0635 36.1681 23.0674 35.8419 23.1373C35.5158 23.2072 35.2069 23.3416 34.9335 23.5327C34.6601 23.7238 34.4277 23.9677 34.25 24.25C34.0529 24.4844 33.9057 24.7567 33.8175 25.05C33.7293 25.3433 33.7019 25.6515 33.7371 25.9558C33.7722 26.2601 33.869 26.554 34.0217 26.8195C34.1744 27.085 34.3797 27.3166 34.625 27.5C36.2335 28.6288 38.067 29.3964 40 29.75V32.5C40 33.163 40.2634 33.7989 40.7322 34.2678C41.2011 34.7366 41.837 35 42.5 35C43.163 35 43.7989 34.7366 44.2678 34.2678C44.7366 33.7989 45 33.163 45 32.5V29.75C46.3712 29.5478 47.6648 28.9872 48.75 28.125C49.5336 27.5498 50.169 26.7963 50.6037 25.9268C51.0384 25.0574 51.2599 24.097 51.25 23.125C51.25 18.5 47 17 43.375 16.25C39.75 15.5 39 14.625 39 14C39 13.375 39.25 13.25 39.625 12.875C40.3146 12.5043 41.0933 12.3312 41.875 12.375C43.3274 12.3624 44.7551 12.7518 46 13.5C46.2531 13.7065 46.548 13.8554 46.8644 13.9365C47.1808 14.0175 47.5111 14.0286 47.8323 13.9692C48.1534 13.9097 48.4578 13.781 48.7242 13.5921C48.9906 13.4031 49.2127 13.1584 49.375 12.875C49.5893 12.6194 49.7473 12.3215 49.8388 12.0008C49.9303 11.68 49.9532 11.3436 49.906 11.0134C49.8588 10.6832 49.7426 10.3667 49.565 10.0844C49.3874 9.80211 49.1523 9.56039 48.875 9.375C47.6864 8.64132 46.3728 8.13284 45 7.875V5C45 4.33696 44.7366 3.70107 44.2678 3.23223C43.7989 2.76339 43.163 2.5 42.5 2.5C41.837 2.5 41.2011 2.76339 40.7322 3.23223C40.2634 3.70107 40 4.33696 40 5V7.75C36.25 8.375 33.75 10.875 33.75 14.25C33.75 17.625 37.875 20.375 41.875 21.125C45.875 21.875 46 22.75 46 23.375C46 24 44.625 25.125 42.875 25.125Z" fill="#FF0000"/>
<path d="M52.75 39.625C52.0556 39.065 51.2533 38.6538 50.3931 38.4173C49.5329 38.1807 48.6332 38.1238 47.75 38.25L35.375 40.5C35.3815 39.7292 35.2295 38.9653 34.9285 38.2557C34.6274 37.5461 34.1838 36.906 33.625 36.375L24.75 27.5H6.25C5.58696 27.5 4.95107 27.7634 4.48223 28.2322C4.01339 28.7011 3.75 29.337 3.75 30V41.25C3.75 41.913 4.01339 42.5489 4.48223 43.0178C4.95107 43.4866 5.58696 43.75 6.25 43.75H10.375L24.375 55.125L49.875 50.5C51.0271 50.2751 52.0925 49.7302 52.9493 48.9279C53.8061 48.1255 54.4197 47.0981 54.7197 45.9633C55.0197 44.8284 54.9941 43.632 54.6457 42.5111C54.2974 41.3901 53.6404 40.3899 52.75 39.625ZM49 45.625L25.625 49.875L12.5 39V32.5H22.75L30.125 39.875C30.3239 40.0739 30.4357 40.3437 30.4357 40.625C30.4357 40.9063 30.3239 41.1761 30.125 41.375C29.9261 41.5739 29.6563 41.6857 29.375 41.6857C29.0937 41.6857 28.8239 41.5739 28.625 41.375L24.25 37C23.7686 36.6389 23.1731 36.4636 22.5728 36.5063C21.9725 36.549 21.4078 36.8067 20.9822 37.2322C20.5567 37.6578 20.299 38.2225 20.2563 38.8228C20.2136 39.4231 20.3889 40.0186 20.75 40.5L25.125 44.875C25.6703 45.4495 26.3307 45.9023 27.0631 46.2039C27.7955 46.5055 28.5833 46.649 29.375 46.625C30.1403 46.6216 30.9 46.495 31.625 46.25L48.625 43.25C48.9781 43.2005 49.3367 43.2901 49.625 43.5C49.7477 43.6096 49.8448 43.7447 49.9096 43.8959C49.9744 44.0471 50.0053 44.2106 50 44.375C50.0059 44.6674 49.9091 44.9527 49.7263 45.1811C49.5436 45.4095 49.2866 45.5666 49 45.625Z" fill="#FF0000"/>
</svg>
